<?xml version="1.0" encoding="UTF-8"?>
<!DOCTYPE svg PUBLIC "-//W3C//DTD SVG 1.1//EN" "http://www.w3.org/Graphics/SVG/1.1/DTD/svg11.dtd">
<svg xmlns="http://www.w3.org/2000/svg" version="1.1" width="864px" height="286px" style="shape-rendering:geometricPrecision; text-rendering:geometricPrecision; image-rendering:optimizeQuality; fill-rule:evenodd; clip-rule:evenodd" xmlns:xlink="http://www.w3.org/1999/xlink">
<g><path style="opacity:0.953" fill="#70bb45" d="M 35.5,32.5 C 86.8333,32.5 138.167,32.5 189.5,32.5C 189.5,40.5 189.5,48.5 189.5,56.5C 138.5,56.5 87.5,56.5 36.5,56.5C 36.7701,48.445 36.4368,40.445 35.5,32.5 Z"/></g>
<g><path style="opacity:0.98" fill="#e7231b" d="M 190.5,32.5 C 230.501,32.3333 270.501,32.5 310.5,33C 321.333,43.8333 332.167,54.6667 343,65.5C 343.667,94.1667 343.667,122.833 343,151.5C 334.123,160.042 325.623,168.875 317.5,178C 328.135,202.748 338.469,227.581 348.5,252.5C 339.582,252.817 330.749,252.484 322,251.5C 308.67,221 295.836,190.334 283.5,159.5C 289.176,159.666 294.843,159.499 300.5,159C 306.333,153.167 312.167,147.333 318,141.5C 318.667,119.5 318.667,97.5 318,75.5C 311.833,69.3333 305.667,63.1667 299.5,57C 263.168,56.5 226.835,56.3333 190.5,56.5C 190.5,48.5 190.5,40.5 190.5,32.5 Z"/></g>
<g><path style="opacity:0.995" fill="#31b9c8" d="M 349.5,32.5 C 362.167,32.5 374.833,32.5 387.5,32.5C 387.5,105.833 387.5,179.167 387.5,252.5C 379.167,252.5 370.833,252.5 362.5,252.5C 362.5,187.167 362.5,121.833 362.5,56.5C 358.167,56.5 353.833,56.5 349.5,56.5C 349.5,48.5 349.5,40.5 349.5,32.5 Z"/></g>
<g><path style="opacity:0.968" fill="#30b8c8" d="M 417.5,32.5 C 417.5,33.1667 417.5,33.8333 417.5,34.5C 416.574,107 416.574,179.667 417.5,252.5C 409.167,252.5 400.833,252.5 392.5,252.5C 392.5,179.167 392.5,105.833 392.5,32.5C 400.833,32.5 409.167,32.5 417.5,32.5 Z"/></g>
<g><path style="opacity:0.987" fill="#3664ae" d="M 417.5,32.5 C 426.085,32.1834 434.585,32.5168 443,33.5C 464.734,106.202 486.568,178.869 508.5,251.5C 499.607,252.816 490.774,252.816 482,251.5C 460.19,179.238 438.69,106.904 417.5,34.5C 417.5,33.8333 417.5,33.1667 417.5,32.5 Z"/></g>
<g><path style="opacity:0.986" fill="#3563ae" d="M 596.5,32.5 C 596.5,33.1667 596.5,33.8333 596.5,34.5C 575.136,106.952 553.303,179.285 531,251.5C 525.667,252.833 520.333,252.833 515,251.5C 493.157,178.639 471.323,105.806 449.5,33C 458.412,32.1837 467.245,32.3503 476,33.5C 491.667,85.8333 507.333,138.167 523,190.5C 539.308,138.604 555.308,86.6042 571,34.5C 579.23,32.5484 587.73,31.8817 596.5,32.5 Z"/></g>
<g><path style="opacity:0.982" fill="#3764ae" d="M 539.5,32.5 C 548.173,32.3336 556.84,32.5002 565.5,33C 551.859,77.5881 538.026,122.088 524,166.5C 519.329,152.654 515.163,138.654 511.5,124.5C 520.641,93.7457 529.974,63.0791 539.5,32.5 Z"/></g>
<g><path style="opacity:0.993" fill="#2eb8c8" d="M 596.5,32.5 C 609.5,32.5 622.5,32.5 635.5,32.5C 635.5,105.833 635.5,179.167 635.5,252.5C 627.5,252.5 619.5,252.5 611.5,252.5C 611.5,187.167 611.5,121.833 611.5,56.5C 610.167,56.5 608.833,56.5 607.5,56.5C 604.167,56.5 600.833,56.5 597.5,56.5C 597.825,48.9809 597.492,41.6476 596.5,34.5C 596.5,33.8333 596.5,33.1667 596.5,32.5 Z"/></g>
<g><path style="opacity:0.977" fill="#2bb8c7" d="M 664.5,32.5 C 664.5,105.833 664.5,179.167 664.5,252.5C 656.5,252.5 648.5,252.5 640.5,252.5C 640.5,179.167 640.5,105.833 640.5,32.5C 648.5,32.5 656.5,32.5 664.5,32.5 Z"/></g>
<g><path style="opacity:0.958" fill="#f3981a" d="M 690.5,32.5 C 702.171,32.3335 713.838,32.5001 725.5,33C 713.667,44.8333 701.833,56.6667 690,68.5C 689.5,99.1649 689.333,129.832 689.5,160.5C 681.5,160.5 673.5,160.5 665.5,160.5C 665.333,126.165 665.5,91.8317 666,57.5C 674.369,49.2983 682.536,40.965 690.5,32.5 Z"/></g>
<g><path style="opacity:0.976" fill="#f3991c" d="M 732.5,32.5 C 750.17,32.3334 767.836,32.5001 785.5,33C 796,43.5 806.5,54 817,64.5C 817.5,127.166 817.667,189.832 817.5,252.5C 809.5,252.5 801.5,252.5 793.5,252.5C 793.667,193.499 793.5,134.499 793,75.5C 786.833,69.3333 780.667,63.1667 774.5,57C 764.167,56.3333 753.833,56.3333 743.5,57C 735.667,64.8333 727.833,72.6667 720,80.5C 719.5,107.165 719.333,133.831 719.5,160.5C 711.167,160.5 702.833,160.5 694.5,160.5C 694.333,130.831 694.5,101.165 695,71.5C 707.339,58.3277 719.839,45.3277 732.5,32.5 Z"/></g>
<g><path style="opacity:0.951" fill="#70bb46" d="M 36.5,62.5 C 52.5,62.5 68.5,62.5 84.5,62.5C 84.5,70.5 84.5,78.5 84.5,86.5C 68.5,86.5 52.5,86.5 36.5,86.5C 36.5,78.5 36.5,70.5 36.5,62.5 Z"/></g>
<g><path style="opacity:0.956" fill="#6fbb44" d="M 89.5,62.5 C 122.833,62.5 156.167,62.5 189.5,62.5C 189.5,70.5 189.5,78.5 189.5,86.5C 164.167,86.5 138.833,86.5 113.5,86.5C 113.5,141.833 113.5,197.167 113.5,252.5C 105.5,252.5 97.5,252.5 89.5,252.5C 89.5,189.167 89.5,125.833 89.5,62.5 Z"/></g>
<g><path style="opacity:0.978" fill="#e72119" d="M 190.5,62.5 C 226.502,62.3333 262.502,62.5 298.5,63C 303,67.5 307.5,72 312,76.5C 313.643,97.4109 313.977,118.411 313,139.5C 308.167,144.333 303.333,149.167 298.5,154C 282.17,154.5 265.837,154.667 249.5,154.5C 249.5,146.5 249.5,138.5 249.5,130.5C 262.413,130.822 275.246,130.489 288,129.5C 288.667,115.5 288.667,101.5 288,87.5C 263.575,86.5056 239.075,86.1723 214.5,86.5C 214.5,141.833 214.5,197.167 214.5,252.5C 206.5,252.5 198.5,252.5 190.5,252.5C 190.5,189.167 190.5,125.833 190.5,62.5 Z"/></g>
<g><path style="opacity:0.986" fill="#f3991f" d="M 665.5,252.5 C 665.5,223.5 665.5,194.5 665.5,165.5C 698.167,165.5 730.833,165.5 763.5,165.5C 763.667,139.498 763.5,113.498 763,87.5C 750.246,86.5109 737.413,86.1776 724.5,86.5C 724.343,85.1266 724.51,83.7932 725,82.5C 731.5,76 738,69.5 744.5,63C 754.167,62.3333 763.833,62.3333 773.5,63C 778.333,67.8333 783.167,72.6667 788,77.5C 788.667,114.833 788.667,152.167 788,189.5C 755.24,190.496 722.407,190.829 689.5,190.5C 689.5,211.167 689.5,231.833 689.5,252.5C 681.5,252.5 673.5,252.5 665.5,252.5 Z"/></g>
<g><path style="opacity:0.416" fill="#fcfdfe" d="M 664.5,32.5 C 656.5,32.5 648.5,32.5 640.5,32.5C 640.5,105.833 640.5,179.167 640.5,252.5C 648.5,252.5 656.5,252.5 664.5,252.5C 664.833,252.5 665.167,252.5 665.5,252.5C 657.016,253.493 648.349,253.826 639.5,253.5C 639.5,179.5 639.5,105.5 639.5,31.5C 648.587,31.1676 656.92,31.5009 664.5,32.5 Z"/></g>
<g><path style="opacity:0.098" fill="#a0dce2" d="M 607.5,56.5 C 608.833,56.5 610.167,56.5 611.5,56.5C 611.5,121.833 611.5,187.167 611.5,252.5C 610.501,187.669 610.168,122.669 610.5,57.5C 609.209,57.7373 608.209,57.404 607.5,56.5 Z"/></g>
<g><path style="opacity:0.955" fill="#6fbb44" d="M 119.5,92.5 C 127.5,92.5 135.5,92.5 143.5,92.5C 143.5,145.833 143.5,199.167 143.5,252.5C 135.5,252.5 127.5,252.5 119.5,252.5C 119.5,199.167 119.5,145.833 119.5,92.5 Z"/></g>
<g><path style="opacity:0.998" fill="#e8271d" d="M 220.5,92.5 C 228.167,92.5 235.833,92.5 243.5,92.5C 243.5,145.833 243.5,199.167 243.5,252.5C 235.5,252.5 227.5,252.5 219.5,252.5C 219.168,198.997 219.501,145.664 220.5,92.5 Z"/></g>
<g><path style="opacity:0.388" fill="#f0675f" d="M 220.5,92.5 C 228.316,91.5076 236.316,91.1743 244.5,91.5C 244.832,145.336 244.499,199.003 243.5,252.5C 243.5,199.167 243.5,145.833 243.5,92.5C 235.833,92.5 228.167,92.5 220.5,92.5 Z"/></g>
<g><path style="opacity:0.975" fill="#e7221b" d="M 276.5,159.5 C 289.928,190.201 303.262,221.034 316.5,252C 307.482,252.832 298.482,252.665 289.5,251.5C 280.167,229.5 270.833,207.5 261.5,185.5C 257.555,184.509 253.555,184.176 249.5,184.5C 249.5,176.5 249.5,168.5 249.5,160.5C 258.682,160.827 267.682,160.493 276.5,159.5 Z"/></g>
<g><path style="opacity:0.986" fill="#f3991f" d="M 764.5,252.5 C 764.5,241.5 764.5,230.5 764.5,219.5C 749.324,219.171 734.324,219.504 719.5,220.5C 719.5,231.167 719.5,241.833 719.5,252.5C 711.167,252.5 702.833,252.5 694.5,252.5C 694.5,233.5 694.5,214.5 694.5,195.5C 725.833,195.5 757.167,195.5 788.5,195.5C 788.5,214.5 788.5,233.5 788.5,252.5C 780.5,252.5 772.5,252.5 764.5,252.5 Z"/></g>
<g><path style="opacity:0.376" fill="#f7bb74" d="M 719.5,220.5 C 734.324,219.504 749.324,219.171 764.5,219.5C 764.5,230.5 764.5,241.5 764.5,252.5C 763.506,242.013 763.172,231.346 763.5,220.5C 748.833,220.5 734.167,220.5 719.5,220.5 Z"/></g>
</svg>
